<?xml version="1.0" encoding="UTF-8"?>
<svg width="78px" height="86px" viewBox="0 0 78 86" version="1.1" xmlns="http://www.w3.org/2000/svg" xmlns:xlink="http://www.w3.org/1999/xlink">
    <title>Lock</title>
    <g id="⭐️-Main-Template" stroke="none" stroke-width="1" fill="none" fill-rule="evenodd">
        <g id="1.0-Desktop-[Basic]" transform="translate(-317.000000, -1554.000000)" fill="#FFFFFF" fill-rule="nonzero">
            <g id="Cards" transform="translate(0.000000, 1403.000000)">
                <g id="Content" transform="translate(220.000000, 93.000000)">
                    <g id="Group-2" transform="translate(35.000000, 0.000000)">
                        <g id="Lock" transform="translate(62.000000, 58.000000)">
                            <g id="Icon-Group" transform="translate(0.975000, 0.000000)">
                                <path d="M22.117485,3.26741071 C28.01565,1.69519643 34.275735,0.276785714 38.025,0.276785714 C41.76861,0.276785714 48.03435,1.69519643 53.932515,3.26741071 C59.1933394,4.6902348 64.4200208,6.23819739 69.608175,7.91 C72.594015,8.867 74.844705,11.458875 75.28014,14.6545714 C78.520455,38.5624821 71.00496,56.278375 61.894755,68.001625 C58.0125019,73.0327582 53.4033371,77.4491116 48.220965,81.1034107 C46.4189822,82.3748873 44.51408,83.4915213 42.52638,84.4415179 C40.99953,85.147875 39.37089,85.7232143 38.025,85.7232143 C36.67911,85.7232143 35.05047,85.147875 33.52362,84.4415179 C31.5354945,83.4923347 29.630526,82.3756618 27.829035,81.1034107 C22.6487229,77.4485985 18.041496,73.0322754 14.1609,68.001625 C5.039385,56.278375 -2.470455,38.5624821 0.76986,14.6545714 C1.21202857,11.4930886 3.41872798,8.86908764 6.441825,7.91 C11.6299916,6.23823801 16.8566721,4.69027569 22.117485,3.26741071 L22.117485,3.26741071 Z M40.937325,42.481625 C44.7849981,41.0634192 47.0764266,37.0775606 46.3824548,33.0100148 C45.6884831,28.9424691 42.2074819,25.9559386 38.1105392,25.9131116 C34.0135965,25.8702847 30.4718178,28.7834034 29.6941977,32.8355661 C28.9165776,36.8877287 31.1253978,40.9206302 34.943025,42.4189643 C34.8236797,42.6638657 34.7398836,42.9247692 34.694205,43.1936786 L32.81109,54.5865357 C32.6748513,55.4120146 32.9058756,56.2560794 33.4428164,56.8945966 C33.9797573,57.5331137 34.768282,57.9014719 35.599005,57.9018576 L40.32093,57.9018576 C41.1551629,57.9023243 41.947023,57.5316719 42.4846174,56.8890823 C43.0222117,56.2464928 43.2506647,55.397559 43.108845,54.5694464 L41.14656,43.1765893 C41.1065391,42.9368901 41.0362226,42.7033373 40.937325,42.481625 L40.937325,42.481625 Z" id="Icon-Shape"></path>
                            </g>
                        </g>
                    </g>
                </g>
            </g>
        </g>
    </g>
</svg>