<?xml version="1.0" encoding="UTF-8"?>
<svg width="75px" height="81px" viewBox="0 0 75 81" version="1.1" xmlns="http://www.w3.org/2000/svg" xmlns:xlink="http://www.w3.org/1999/xlink">
    <title>Pizza</title>
    <g id="⭐️-Main-Template" stroke="none" stroke-width="1" fill="none" fill-rule="evenodd">
        <g id="1.0-Desktop-[Basic]" transform="translate(-683.000000, -1557.000000)" fill="#FFFFFF" fill-rule="nonzero">
            <g id="Cards" transform="translate(0.000000, 1403.000000)">
                <g id="Content" transform="translate(585.000000, 93.000000)">
                    <g id="Group" transform="translate(35.000000, 0.000000)">
                        <g id="Pizza" transform="translate(63.000000, 61.000000)">
                            <path d="M70.9451893,6.81393349 C60.4486092,2.67858707 48.5568002,0.399671053 37.4561004,0.399671053 C26.028169,0.399671053 14.1183803,2.6427832 3.91307218,6.71189248 C0.263182218,8.18522153 -0.36431118,10.7827919 0.264980194,12.719781 L0.996756162,14.5421978 C1.28683304,15.2632769 1.85860498,15.8361326 2.58099702,16.1294417 C3.30338906,16.4227507 4.11444717,16.4113582 4.82824164,16.0978757 C6.77005502,15.2457437 9.13079665,14.211012 9.68277509,13.9890281 C17.5956646,10.718345 27.2346105,8.99259868 37.5352113,8.99259868 C47.8681756,8.99259868 56.9695268,10.6467373 65.3606778,14.0498946 C66.1553829,14.3721294 68.0360651,15.1991987 70.0659793,16.1014561 C70.77828,16.4182377 71.5892523,16.4334004 72.3129955,16.1434685 C73.0367387,15.8535367 73.6111864,15.283374 73.9046567,14.5636801 L74.5735035,12.9310238 L74.6346347,12.7699065 C75.2549362,10.9421191 74.6598063,8.28547235 70.9451893,6.81393349 Z" id="Icon-Path"></path>
                            <path d="M65.0765977,19.8877148 C56.8940119,16.6062906 46.8271479,14.7212171 37.4561004,14.7212171 C28.0000496,14.7274042 18.6272889,16.4810601 9.81402729,19.8930854 C9.7187346,19.9306795 9.44364437,20.0506224 9.04269586,20.2296418 C8.34253776,20.5420804 7.79674343,21.1200572 7.52663713,21.835094 C7.25653083,22.5501308 7.28449575,23.342974 7.60431558,24.0373828 C8.32350572,25.5966411 9.29800836,27.7216005 10.3911774,30.1043478 C16.3083143,43.0062706 27.3245092,66.9948602 32.3678301,77.3779811 C33.321353,79.3550284 35.3325084,80.6091729 37.5352113,80.6003754 C39.7417954,80.6090234 41.755552,79.3499472 42.7061884,77.3672399 L42.7169762,77.3439674 L67.4031778,24.0731867 C67.7331746,23.3687853 67.7603044,22.560835 67.4782972,21.8360609 C67.19629,21.1112868 66.6295514,20.5324127 65.9090603,20.2332221 C65.5027179,20.0631538 65.2168398,19.945001 65.0999714,19.898456 L65.0765977,19.8877148 Z M26.4021479,34.7588502 C24.0117869,34.9140427 21.7749512,33.578376 20.7867034,31.4057375 C19.7984556,29.233099 20.2655921,26.6781256 21.9594222,24.9916269 C23.6532522,23.3051282 26.2193322,22.8400136 28.4014154,23.823984 C30.5834985,24.8079544 31.9249714,27.0351084 31.7691043,29.4151234 C31.5811372,32.2852901 29.2847915,34.5716967 26.4021479,34.7588502 Z M37.9091901,57.6733239 C35.5188291,57.8285163 33.2819935,56.4928497 32.2937457,54.3202112 C31.3054979,52.1475727 31.7726344,49.5925993 33.4664644,47.9061006 C35.1602945,46.2196019 37.7263745,45.7544873 39.9084576,46.7384577 C42.0905407,47.7224281 43.4320136,49.9495821 43.2761466,52.329597 C43.0881795,55.1997638 40.7918337,57.4861704 37.9091901,57.6733239 Z M49.4162324,37.6231594 C47.0258714,37.7783519 44.7890357,36.4426852 43.8007879,34.2700467 C42.8125401,32.0974082 43.2796766,29.5424348 44.9735067,27.8559361 C46.6673367,26.1694374 49.2334168,25.7043228 51.4154999,26.6882932 C53.597583,27.6722636 54.9390559,29.8994176 54.7831888,32.2794326 C54.5952217,35.1495993 52.298876,37.4360059 49.4162324,37.6231594 L49.4162324,37.6231594 Z" id="Icon-Shape"></path>
                        </g>
                    </g>
                </g>
            </g>
        </g>
    </g>
</svg>