<?xml version="1.0" encoding="UTF-8"?>
<svg width="75px" height="75px" viewBox="0 0 75 75" version="1.1" xmlns="http://www.w3.org/2000/svg" xmlns:xlink="http://www.w3.org/1999/xlink">
    <title>ThumbsDown</title>
    <g id="⭐️-Main-Template" stroke="none" stroke-width="1" fill="none" fill-rule="evenodd">
        <g id="1.0-Desktop-[Basic]" transform="translate(-1048.000000, -1560.000000)" fill="#FFFFFF" fill-rule="nonzero">
            <g id="Cards" transform="translate(0.000000, 1403.000000)">
                <g id="Content" transform="translate(950.000000, 93.000000)">
                    <g id="Group" transform="translate(35.000000, 0.000000)">
                        <g id="Icon" transform="translate(63.000000, 64.000000)">
                            <path d="M0,8.203125 L0,43.359375 C0,45.3010254 1.57397461,46.875 3.515625,46.875 L15.234375,46.875 C17.1760254,46.875 18.75,45.3010254 18.75,43.359375 L18.75,8.203125 C18.75,6.26147461 17.1760254,4.6875 15.234375,4.6875 L3.515625,4.6875 C1.57397461,4.6875 0,6.26147461 0,8.203125 Z M5.859375,37.5 C5.859375,35.5583496 7.43334961,33.984375 9.375,33.984375 C11.3166504,33.984375 12.890625,35.5583496 12.890625,37.5 C12.890625,39.4416504 11.3166504,41.015625 9.375,41.015625 C7.43334961,41.015625 5.859375,39.4416504 5.859375,37.5 Z M45.703125,75 C42.7466309,75 41.3840332,69.2441895 40.7327637,66.5339355 C39.970166,63.3602051 39.1816406,60.0783691 37.0130859,57.9057129 C32.2568848,53.1414551 29.7616699,47.0707031 23.9588379,41.3367188 C23.625297,41.0070141 23.4376465,40.5575186 23.4376465,40.0885254 L23.4376465,8.77456055 C23.4376465,7.81640625 24.2056641,7.03461914 25.1636719,7.01704102 C27.482666,6.97456055 30.5387695,5.68710938 32.8762207,4.6472168 C37.5276855,2.57783203 43.316748,0.00249023438 50.3898926,0 L50.8064941,0 C57.0726563,0 64.4827148,0.0604980469 67.4726074,4.35600586 C68.7019043,6.12216797 69.0027832,8.31606445 68.3731934,10.8938965 C70.7626465,13.3918945 72.0445313,18.0515625 70.7729004,21.8446289 C73.3428223,25.2770508 73.5770508,30.0670898 72.136377,33.4855957 L72.1524902,33.501709 C73.8946289,35.2520508 75.0123047,38.0806641 75.0001006,40.7083008 C74.9771484,45.1543945 71.1684082,49.21875 66.276416,49.21875 L51.3754395,49.21875 C52.4458008,53.3701172 56.25,56.8552734 56.25,63.0685547 C56.25,73.828125 49.21875,75 45.703125,75 Z" id="Icon-Shape"></path>
                        </g>
                    </g>
                </g>
            </g>
        </g>
    </g>
</svg>